<svg id="Layer_1" data-name="Layer 1" xmlns="http://www.w3.org/2000/svg" viewBox="0 0 15.37 10.66"><defs><style>.cls-1{fill:#110b79;}.cls-2{fill:#f29d00;}</style></defs><title>Untitled-1</title><path class="cls-1" d="M6.51,3.87l.08.06,0,.08-.07.11v.16l-.15.19,0,.17-.12.06a.71.71,0,0,1-.1-.13c0-.07,0-.19,0-.19L6.09,4.2,6,4.11l-.18,0L5.69,4V3.77l.07-.06,0-.12.15,0,.2.05.15,0h.12l0,0,0,0-.08-.11L6.2,3.33l-.09-.05-.06.11L6,3.29l-.07,0,0,.09-.06.06-.15-.1,0-.09.1,0V3.18l.08-.07L6.05,3l.09,0,.07-.18.11,0a1.72,1.72,0,0,0-.49-.44l-.16,0-.16.06-.23,0-.07-.09-.13-.1,0-.11H5.2l-.28,0A1.79,1.79,0,1,0,6.7,4V3.82l-.07,0ZM5.73,3l.1,0L6,3,5.87,3a.18.18,0,0,1-.12.07c-.07,0,0-.12,0-.12M4.48,5.49l-.11,0L4,5.44a2.18,2.18,0,0,1-.36-.29l.17,0L4,5.07l.11,0s.14,0,.17.08.13.14.13.14l.18.11Zm1-1v.11l-.15.06-.13.17L5.12,5,5,5.15l0,.17,0,.08-.08-.14,0-.27.08-.13V4.62l-.16-.14,0-.1,0-.18-.07-.06A.44.44,0,0,0,4.44,4,.32.32,0,0,1,4.25,4L4.17,3.8A.49.49,0,0,0,4,3.74c-.05,0-.11-.16-.11-.16V3.44l-.08-.12-.07-.15.15-.1,0-.17-.25-.06,0-.08.56-.27.15,0,.28,0,.15,0L5,2.44l0,.17L5.1,3l.17.27-.21.07L5,3.43H4.83l-.08.16,0,.2,0,.05-.1-.14-.16,0v.16L4.49,4H4.6l.07,0,0,.07h.22l.1,0,.19,0a.7.7,0,0,1,0,.13c0,.06.11,0,.11,0l.21.12ZM5,4H5l-.16-.07.18,0s0,.06,0,.09" transform="translate(-0.32 -2.17)"/><path class="cls-1" d="M1.68,10.36l-.55-.21A1.64,1.64,0,0,1,.7,9.89a1,1,0,0,1-.28-.36A1.18,1.18,0,0,1,.32,9a1.16,1.16,0,0,1,.45-.95,2.07,2.07,0,0,1,1.28-.35,3.16,3.16,0,0,1,.55,0A1.64,1.64,0,0,1,3,7.88a.74.74,0,0,1,.29.22.52.52,0,0,1,.11.32.54.54,0,0,1-.09.31.83.83,0,0,1-.2.22,1.21,1.21,0,0,0-.41-.17,2,2,0,0,0-.56-.08.91.91,0,0,0-.46.09A.25.25,0,0,0,1.57,9a.21.21,0,0,0,.09.17,1.18,1.18,0,0,0,.27.12l.37.12a2.66,2.66,0,0,1,1,.53,1.23,1.23,0,0,1-.12,1.83,2.13,2.13,0,0,1-1.37.37,3.61,3.61,0,0,1-.59-.05,2.08,2.08,0,0,1-.48-.16.81.81,0,0,1-.32-.25.51.51,0,0,1-.11-.34A.55.55,0,0,1,.43,11a.87.87,0,0,1,.26-.22,1.81,1.81,0,0,0,.48.26,1.51,1.51,0,0,0,.61.11.82.82,0,0,0,.48-.1.31.31,0,0,0,.14-.25.25.25,0,0,0-.11-.21A1.54,1.54,0,0,0,2,10.46Z" transform="translate(-0.32 -2.17)"/><path class="cls-1" d="M14.52,7.88a1,1,0,0,0-.81.32,1.37,1.37,0,0,0-.29.92,1.3,1.3,0,0,0,.32.93,1.14,1.14,0,0,0,.84.32,1.35,1.35,0,0,0,.48-.07,2.64,2.64,0,0,0,.38-.18.69.69,0,0,1,.18.24.59.59,0,0,1,.07.31.57.57,0,0,1-.32.48,1.82,1.82,0,0,1-.95.2,2.74,2.74,0,0,1-.87-.14,1.84,1.84,0,0,1-.71-.4,1.72,1.72,0,0,1-.48-.69,2.52,2.52,0,0,1-.18-1,2.55,2.55,0,0,1,.17-.95,2.09,2.09,0,0,1,.46-.69,2.06,2.06,0,0,1,.69-.43,2.55,2.55,0,0,1,.84-.14,2.06,2.06,0,0,1,1,.2.61.61,0,0,1,.34.54.54.54,0,0,1-.09.31.76.76,0,0,1-.2.2A3.55,3.55,0,0,0,15,8a1.32,1.32,0,0,0-.47-.08" transform="translate(-0.32 -2.17)"/><path class="cls-2" d="M6.79,10.67c0,1.27.07,1.42.72,1.49l.38,0a.47.47,0,0,1,0,.63c-.69,0-1.46-.05-2.36-.05s-1.71,0-2.36.05a.45.45,0,0,1,0-.63l.37,0c.65-.07.73-.22.73-1.49V9c0-.72,0-.92-.37-1.16l-.28-.16c-.14-.11-.16-.52,0-.55a15.9,15.9,0,0,0,2.91-1,.23.23,0,0,1,.34.19c0,.54,0,1.25,0,2.07Z" transform="translate(-0.32 -2.17)"/><path class="cls-2" d="M11.31,6.3c-.26,0-.28,0-.28.42V9.44c0,1,0,2.14,1.38,2.14a1.73,1.73,0,0,0,.82-.27.4.4,0,0,1,.28.47,4.2,4.2,0,0,1-2.83,1.05C9,12.83,8.47,12,8.47,10.76v-4c0-.38,0-.42-.37-.42H7.49c-.21-.07-.32-.54-.14-.63a17.36,17.36,0,0,0,1.58-.89,11,11,0,0,0,1.63-1.22c.12-.1.49-.12.49.14V5c0,.35,0,.37.37.37h1.75a.39.39,0,0,1,.16.34c0,.2-.06.53-.26.63Z" transform="translate(-0.32 -2.17)"/></svg>